<svg xmlns="http://www.w3.org/2000/svg" xmlns:xlink="http://www.w3.org/1999/xlink" width="20.608" height="20.085" viewBox="0 0 20.608 20.085"><defs><style>.a{fill:#fff;}.b{clip-path:url(#a);}</style><clipPath id="a"><rect class="a" width="20.608" height="20.085"/></clipPath></defs><g class="b"><path class="a" d="M9.056,10.873c2.205,0,4.411.005,6.616,0,.468,0,1.016.15,1.036-.659.027-1.109-.229-1.65-.971-1.755a3.351,3.351,0,0,0-.621-.022c-.5.023-.771-.135-.779-.7-.008-.614.3-.729.825-.738a2.642,2.642,0,0,1,2.971,2.831q.025,5.448,0,10.9a2.588,2.588,0,0,1-2.844,2.79q-6.11.014-12.22,0C.934,23.511,0,22.554,0,20.406Q0,15.113,0,9.82A2.64,2.64,0,0,1,3.114,7c.5.044.671.271.678.743.007.5-.218.73-.7.683-1.347-.131-1.63.48-1.725,1.711-.049.636.233.742.767.738,2.309-.016,4.618-.007,6.927-.006M9,12.3v0c-2.283,0-4.566,0-6.849,0-.313,0-.727-.11-.726.439.006,2.722-.016,5.444.03,8.165.014.858.429,1.165,1.324,1.167q6.227.011,12.453,0c1.09,0,1.458-.365,1.462-1.444.01-2.465-.017-4.929.014-7.394.009-.705-.222-.962-.938-.952-2.257.033-4.514.012-6.771.012" transform="translate(1.231 -4.667)"/><path class="a" d="M40.922,8.525c-.8,0-1.6,0-2.405,0-.4,0-.715-.057-.686-.588.024-.437,0-.844.62-.841,1.707.009,3.413,0,5.12,0,.493,0,.59.3.589.716s-.11.708-.6.7c-.879-.006-1.758,0-2.638,0Z" transform="translate(-30.705 -4.762)"/><path class="a" d="M81.832,1.92c-.018.319-.01.684-.065,1.04a.71.71,0,0,1-.73.671c-.446,0-.63-.294-.681-.7A7.46,7.46,0,0,1,80.335.846c.067-.429.19-.853.734-.833.519.019.676.4.7.856.017.336.04.671.062,1.05" transform="translate(-66.533 1.22)"/><path class="a" d="M27.556,1.84c0,.362.021.725-.006,1.084-.03.4-.22.7-.671.7A.647.647,0,0,1,26.2,3.01a9.16,9.16,0,0,1,0-2.394A.655.655,0,0,1,26.954,0a.615.615,0,0,1,.6.675c.012.387,0,.775,0,1.162Z" transform="translate(-20.818 1.232)"/></g></svg>