<svg xmlns="http://www.w3.org/2000/svg" xmlns:xlink="http://www.w3.org/1999/xlink" width="56" height="56" viewBox="0 0 56 56"><defs><style>.a{fill:#fff;stroke:#2b0f4d;stroke-width:3px;}.b{fill:#2b0f4d;}.c{clip-path:url(#a);}</style><clipPath id="a"><rect class="a" width="23.488" height="19.09"/></clipPath></defs><g transform="translate(0 -122)"><circle class="b" cx="28" cy="28" r="28" transform="translate(0 122)"/><g transform="translate(15.93 140.29)"><g class="c"><path class="a" d="M22.609.9a2.956,2.956,0,0,0-4.24,0L7.769,11.707,5.118,9A2.956,2.956,0,0,0,.878,9a3.1,3.1,0,0,0,0,4.324l4.77,4.866a2.956,2.956,0,0,0,4.24,0L22.609,5.22a3.1,3.1,0,0,0,0-4.325" transform="translate(0 0.001)"/></g></g></g></svg>