<svg xmlns="http://www.w3.org/2000/svg" width="15.774" height="15.774" viewBox="0 0 15.774 15.774"><defs><style>.a{fill:#6d32a5;}</style></defs><path class="a" d="M463.887,232a7.887,7.887,0,1,0,7.887,7.887A7.887,7.887,0,0,0,463.887,232Zm-1.227,4.317.246-.986a.493.493,0,0,1,.478-.374h1.351a.493.493,0,0,1,.478.612l-.246.986a.494.494,0,0,1-.478.374h-1.351A.493.493,0,0,1,462.66,236.317Zm2.652,6.154-.246.986a.493.493,0,0,1-.478.374H462.25a.493.493,0,0,1-.478-.612l.833-3.331h-.453a.493.493,0,0,1-.478-.612l.247-.986a.493.493,0,0,1,.478-.374h1.7a.985.985,0,0,1,.956,1.224l-.679,2.719h.453A.493.493,0,0,1,465.311,242.471Z" transform="translate(-456 -232)"/></svg>