<svg xmlns="http://www.w3.org/2000/svg" width="16.135" height="15.48" viewBox="0 0 16.135 15.48"><defs><style>.a{fill:#a3a6b9;}</style></defs><path class="a" d="M-1228.119,80.563c-1.715,0-3.43.012-5.145,0a2.9,2.9,0,0,0-2.892,2.465,2.9,2.9,0,0,0-.032.425q0,3.189,0,6.378a2.872,2.872,0,0,0,2.28,2.818c.131.028.17.076.169.208-.006.834,0,1.668,0,2.5a.639.639,0,0,0,.516.672.648.648,0,0,0,.611-.209q1.256-1.259,2.514-2.515c.159-.159.323-.315.476-.479a.334.334,0,0,1,.271-.109q3.213,0,6.426,0a2.89,2.89,0,0,0,2.717-1.952,2.865,2.865,0,0,0,.155-.919q0-3.207,0-6.414a2.883,2.883,0,0,0-2.529-2.847,3.038,3.038,0,0,0-.366-.02Zm-4.343,13.28V93.69q0-.759,0-1.517a.686.686,0,0,0-.325-.644.911.911,0,0,0-.5-.082,1.614,1.614,0,0,1-1.637-1.629q0-3.177,0-6.354a1.6,1.6,0,0,1,1.629-1.632q5.169,0,10.338,0a1.6,1.6,0,0,1,1.63,1.632q0,3.177,0,6.354a1.626,1.626,0,0,1-.039.353,1.608,1.608,0,0,1-1.6,1.277q-3.361,0-6.722,0a.788.788,0,0,0-.6.247c-.683.692-1.373,1.377-2.061,2.064A.246.246,0,0,1-1232.462,93.843Z" transform="translate(1236.188 -80.559)"/></svg>