<svg xmlns="http://www.w3.org/2000/svg" xmlns:xlink="http://www.w3.org/1999/xlink" width="56" height="56" viewBox="0 0 56 56"><defs><style>.a{fill:#fff;}.b{fill:#f53361;}.c{clip-path:url(#a);}</style><clipPath id="a"><rect class="a" width="26.51" height="17.053"/></clipPath></defs><g transform="translate(0 -61)"><circle class="b" cx="28" cy="28" r="28" transform="translate(0 61)"/><g transform="translate(14.835 80.38)"><g class="c"><path class="a" d="M13.244,17.05A14.25,14.25,0,0,1,3.919,13.6a12.155,12.155,0,0,1-1.414-1.34.973.973,0,0,1,.2-1.506.985.985,0,0,1,1.242.193A17.187,17.187,0,0,0,5.7,12.528a12.343,12.343,0,0,0,6.308,2.522,12.182,12.182,0,0,0,7.739-1.788,14.2,14.2,0,0,0,4.5-4.451.427.427,0,0,0,0-.549A13.7,13.7,0,0,0,17.528,2.72a11.794,11.794,0,0,0-5.543-.69A12.963,12.963,0,0,0,2.666,7.692c-.3.415-.557.859-.833,1.29A.976.976,0,1,1,.171,7.964,15.938,15.938,0,0,1,7.337,1.288,13.7,13.7,0,0,1,11.963.057a14.283,14.283,0,0,1,10.4,3.2,16.317,16.317,0,0,1,3.984,4.707,1.082,1.082,0,0,1-.02,1.172,16.331,16.331,0,0,1-5.393,5.689,14.159,14.159,0,0,1-6.275,2.166c-.235.023-.47.046-.705.055s-.473,0-.709,0" transform="translate(0.001 0)"/><path class="a" d="M112.7,57.462a4.746,4.746,0,1,1,4.773-4.716,4.728,4.728,0,0,1-4.773,4.716m.019-7.523a2.761,2.761,0,0,0-2.792,2.79,2.8,2.8,0,1,0,5.6-.012,2.779,2.779,0,0,0-2.811-2.778" transform="translate(-99.468 -44.189)"/></g></g></g></svg>