<svg xmlns="http://www.w3.org/2000/svg" xmlns:xlink="http://www.w3.org/1999/xlink" width="32.015" height="41.604" viewBox="0 0 32.015 41.604"><defs><style>.a{fill:#f53361;}.b{clip-path:url(#a);}</style><clipPath id="a"><rect class="a" width="32.015" height="41.604"/></clipPath></defs><g class="b"><path class="a" d="M0,20.79Q0,11.312,0,1.835A1.621,1.621,0,0,1,1.8,0Q15.965,0,30.132,0A1.685,1.685,0,0,1,31.81.842a1.749,1.749,0,0,1-.2,1.919C29.863,5.37,28.137,8,26.371,10.6a.922.922,0,0,0-.013,1.227c1.786,2.626,3.537,5.274,5.3,7.918a1.651,1.651,0,0,1-.853,2.639,3.439,3.439,0,0,1-.793.049q-12.994,0-25.989,0c-.752,0-.753,0-.753.765q0,8.355,0,16.71a1.623,1.623,0,0,1-2.031,1.649A1.588,1.588,0,0,1,0,39.895q-.01-4.14,0-8.28Q0,26.2,0,20.79M15.308,3.271c-3.808,0-7.617.007-11.425-.009-.469,0-.628.115-.626.608q.026,7.359,0,14.718c0,.465.137.59.593.589q11.45-.019,22.9-.013c.14,0,.336.08.408-.083.065-.148-.1-.266-.179-.386-1.4-2.105-2.789-4.216-4.207-6.308a1.888,1.888,0,0,1,.01-2.349c1.411-2.077,2.792-4.174,4.181-6.266.087-.131.281-.264.184-.427s-.307-.07-.466-.07q-5.687-.006-11.375,0" transform="translate(0 -0.001)"/><path class="a" d="M81.347,54.36a1.6,1.6,0,0,1,1.208.507c.379.373.771.735,1.126,1.131.3.333.446.315.649-.1,1.121-2.283,2.271-4.551,3.4-6.83a1.691,1.691,0,0,1,1.428-1.09A1.619,1.619,0,0,1,90.8,50.323c-.417.941-.9,1.852-1.364,2.774q-1.628,3.256-3.262,6.509c-.727,1.448-1.918,1.638-3.073.488-.978-.973-1.958-1.945-2.922-2.932a1.59,1.59,0,0,1-.33-1.846,1.528,1.528,0,0,1,1.5-.957" transform="translate(-71.721 -43.177)"/></g></svg>