<svg xmlns="http://www.w3.org/2000/svg" width="15.436" height="15.498" viewBox="0 0 15.436 15.498"><defs><style>.a{fill:#fff;stroke:#fff;}</style></defs><path class="a" d="M126.491-720.413q0,1.316,0,2.632a2.213,2.213,0,0,1-.023.363.6.6,0,0,1-.612.527.59.59,0,0,1-.58-.532,3.764,3.764,0,0,1-.029-.519q0-2.594,0-5.187c0-.4-.018-.422-.431-.422q-2.632,0-5.265,0a2.25,2.25,0,0,1-.415-.026.589.589,0,0,1-.483-.6.588.588,0,0,1,.473-.578,2.99,2.99,0,0,1,.544-.038q2.567,0,5.135,0c.427,0,.442-.014.442-.438q0-2.567,0-5.135a3.192,3.192,0,0,1,.033-.519.582.582,0,0,1,.6-.5.578.578,0,0,1,.578.5,2.756,2.756,0,0,1,.03.467q0,2.606,0,5.213c0,.4.018.415.409.416q2.58,0,5.161,0a3.413,3.413,0,0,1,.519.031.578.578,0,0,1,.507.6.58.58,0,0,1-.517.589,2.826,2.826,0,0,1-.416.02h-5.239c-.41,0-.424.015-.424.427Q126.49-721.768,126.491-720.413Z" transform="translate(-118.152 731.888)"/></svg>