<svg xmlns="http://www.w3.org/2000/svg" xmlns:xlink="http://www.w3.org/1999/xlink" width="56" height="56" viewBox="0 0 56 56"><defs><style>.a{fill:#f53361;}.b,.e{fill:none;}.b{stroke:#f53361;stroke-width:2px;}.c{clip-path:url(#a);}.d{stroke:none;}</style><clipPath id="a"><rect class="a" width="16.268" height="21.814"/></clipPath></defs><g class="b"><circle class="d" cx="28" cy="28" r="28"/><circle class="e" cx="28" cy="28" r="27"/></g><g transform="translate(20.182 16.51)"><g class="c"><path class="a" d="M.72,86.686A1.346,1.346,0,0,1,0,85.37c.015-4.055.007-8.11.008-12.165,0-.95.4-1.352,1.357-1.358.824,0,1.648-.018,2.472.009a1.113,1.113,0,0,1,1.173,1.105,1.146,1.146,0,0,1-1.17,1.118c-.257.019-.517.008-.775.009-.861,0-.861,0-.861.866q0,4.459,0,8.918c0,.65,0,.652.628.652,3.538,0,7.076-.008,10.614.01.479,0,.64-.114.636-.618q-.034-4.6,0-9.208c0-.493-.144-.674-.633-.627a6.247,6.247,0,0,1-1.017,0,1.134,1.134,0,0,1-1.168-1.115,1.108,1.108,0,0,1,1.17-1.106q1.356-.039,2.714,0a1.075,1.075,0,0,1,1.114,1.153c.007,4.184,0,8.368.007,12.553a1.256,1.256,0,0,1-.714,1.123Z" transform="translate(0 -64.873)"/><path class="a" d="M44.747,0c1.239,1.089,2.358,2.3,3.517,3.468a1.094,1.094,0,0,1-1.547,1.547,5.83,5.83,0,0,1-.585-.58c-.177-.2-.327-.432-.509-.678a.879.879,0,0,0-.188.709q-.007,4.749,0,9.5a2.476,2.476,0,0,1-.076.768,1.088,1.088,0,0,1-2.1,0,2.484,2.484,0,0,1-.073-.768q0-4.725,0-9.449V3.874a3.458,3.458,0,0,0-.969.844c-.725.7-1.316.8-1.848.279-.5-.49-.4-1.172.286-1.845C41.731,2.1,42.737.984,43.875,0Z" transform="translate(-36.174)"/></g></g></svg>